<svg width="182" height="44" viewBox="0 0 182 44" fill="none" xmlns="http://www.w3.org/2000/svg">
<rect width="43.2" height="43.1373" rx="8" fill="#2CB1BC"/>
<path d="M23.1678 14.1604H25.7814V24.3877C25.7767 25.3252 25.5778 26.1325 25.1849 26.8096C24.7919 27.4819 24.2426 28.0004 23.5371 28.365C22.8364 28.7248 22.0196 28.9048 21.0868 28.9048C20.2346 28.9048 19.4675 28.7532 18.7857 28.4502C18.1086 28.1424 17.5712 27.6879 17.1735 27.0866C16.7758 26.4852 16.5769 25.7371 16.5769 24.8423H19.1976C19.2024 25.2352 19.2876 25.5738 19.4533 25.8579C19.6238 26.142 19.8581 26.3598 20.1564 26.5113C20.4547 26.6628 20.798 26.7386 21.1863 26.7386C21.6077 26.7386 21.9652 26.651 22.2587 26.4758C22.5523 26.2958 22.7748 26.0307 22.9263 25.6803C23.0826 25.3299 23.1631 24.8991 23.1678 24.3877V14.1604Z" fill="white"/>
<path d="M57.1733 18.4545H59.7869V28.6818C59.7822 29.6193 59.5833 30.4266 59.1903 31.1037C58.7973 31.776 58.2481 32.2945 57.5426 32.6591C56.8419 33.0189 56.0251 33.1989 55.0923 33.1989C54.2401 33.1989 53.473 33.0473 52.7912 32.7443C52.1141 32.4366 51.5767 31.982 51.179 31.3807C50.7813 30.7794 50.5824 30.0312 50.5824 29.1364H53.2031C53.2079 29.5294 53.2931 29.8679 53.4588 30.152C53.6293 30.4361 53.8636 30.6539 54.1619 30.8054C54.4602 30.9569 54.8035 31.0327 55.1918 31.0327C55.6132 31.0327 55.9706 30.9451 56.2642 30.7699C56.5578 30.59 56.7803 30.3248 56.9318 29.9744C57.0881 29.6241 57.1686 29.1932 57.1733 28.6818V18.4545ZM67.2905 33.2131C66.2251 33.2131 65.3018 32.9787 64.5206 32.5099C63.7393 32.0412 63.1333 31.3854 62.7024 30.5426C62.2763 29.6998 62.0632 28.715 62.0632 27.5881C62.0632 26.4612 62.2763 25.474 62.7024 24.6264C63.1333 23.7789 63.7393 23.1207 64.5206 22.652C65.3018 22.1832 66.2251 21.9489 67.2905 21.9489C68.3558 21.9489 69.2791 22.1832 70.0604 22.652C70.8416 23.1207 71.4453 23.7789 71.8714 24.6264C72.3023 25.474 72.5178 26.4612 72.5178 27.5881C72.5178 28.715 72.3023 29.6998 71.8714 30.5426C71.4453 31.3854 70.8416 32.0412 70.0604 32.5099C69.2791 32.9787 68.3558 33.2131 67.2905 33.2131ZM67.3047 31.1534C67.8823 31.1534 68.3653 30.9948 68.7536 30.6776C69.1418 30.3556 69.4306 29.9247 69.62 29.3849C69.8142 28.8452 69.9112 28.2438 69.9112 27.581C69.9112 26.9134 69.8142 26.3097 69.62 25.7699C69.4306 25.2254 69.1418 24.7921 68.7536 24.4702C68.3653 24.1482 67.8823 23.9872 67.3047 23.9872C66.7128 23.9872 66.2204 24.1482 65.8274 24.4702C65.4392 24.7921 65.148 25.2254 64.9538 25.7699C64.7644 26.3097 64.6697 26.9134 64.6697 27.581C64.6697 28.2438 64.7644 28.8452 64.9538 29.3849C65.148 29.9247 65.4392 30.3556 65.8274 30.6776C66.2204 30.9948 66.7128 31.1534 67.3047 31.1534ZM74.8136 33V18.4545H77.3846V23.8949H77.4911C77.6237 23.6297 77.8107 23.348 78.0522 23.0497C78.2937 22.7467 78.6204 22.4886 79.0323 22.2756C79.4442 22.0578 79.9698 21.9489 80.609 21.9489C81.4518 21.9489 82.2118 22.1643 82.8888 22.5952C83.5707 23.0213 84.1104 23.6534 84.5082 24.4915C84.9106 25.3248 85.1119 26.3475 85.1119 27.5597C85.1119 28.7576 84.9154 29.7756 84.5224 30.6136C84.1294 31.4517 83.5943 32.0909 82.9173 32.5312C82.2402 32.9716 81.4731 33.1918 80.6161 33.1918C79.9911 33.1918 79.4727 33.0876 79.0607 32.8793C78.6488 32.6709 78.3174 32.42 78.0664 32.1264C77.8202 31.8281 77.6284 31.5464 77.4911 31.2812H77.342V33H74.8136ZM77.3349 27.5455C77.3349 28.2509 77.4343 28.8688 77.6332 29.3991C77.8368 29.9295 78.128 30.3437 78.5067 30.642C78.8903 30.9356 79.3543 31.0824 79.8988 31.0824C80.467 31.0824 80.9428 30.9309 81.3263 30.6278C81.7099 30.3201 81.9987 29.901 82.1928 29.3707C82.3917 28.8357 82.4911 28.2273 82.4911 27.5455C82.4911 26.8684 82.3941 26.267 82.1999 25.7415C82.0058 25.2159 81.717 24.804 81.3335 24.5057C80.9499 24.2074 80.4717 24.0582 79.8988 24.0582C79.3496 24.0582 78.8832 24.2027 78.4996 24.4915C78.1161 24.7803 77.8249 25.1851 77.6261 25.706C77.4319 26.2268 77.3349 26.84 77.3349 27.5455ZM87.4112 18.4545H90.6357L94.9538 28.9943H95.1243L99.4425 18.4545H102.667V33H100.138V23.0071H100.004L95.9837 32.9574H94.0945L90.0746 22.9858H89.9396V33H87.4112V18.4545ZM110.181 33.2131C109.116 33.2131 108.192 32.9787 107.411 32.5099C106.63 32.0412 106.024 31.3854 105.593 30.5426C105.167 29.6998 104.954 28.715 104.954 27.5881C104.954 26.4612 105.167 25.474 105.593 24.6264C106.024 23.7789 106.63 23.1207 107.411 22.652C108.192 22.1832 109.116 21.9489 110.181 21.9489C111.246 21.9489 112.17 22.1832 112.951 22.652C113.732 23.1207 114.336 23.7789 114.762 24.6264C115.193 25.474 115.408 26.4612 115.408 27.5881C115.408 28.715 115.193 29.6998 114.762 30.5426C114.336 31.3854 113.732 32.0412 112.951 32.5099C112.17 32.9787 111.246 33.2131 110.181 33.2131ZM110.195 31.1534C110.773 31.1534 111.256 30.9948 111.644 30.6776C112.032 30.3556 112.321 29.9247 112.511 29.3849C112.705 28.8452 112.802 28.2438 112.802 27.581C112.802 26.9134 112.705 26.3097 112.511 25.7699C112.321 25.2254 112.032 24.7921 111.644 24.4702C111.256 24.1482 110.773 23.9872 110.195 23.9872C109.603 23.9872 109.111 24.1482 108.718 24.4702C108.33 24.7921 108.039 25.2254 107.844 25.7699C107.655 26.3097 107.56 26.9134 107.56 27.581C107.56 28.2438 107.655 28.8452 107.844 29.3849C108.039 29.9247 108.33 30.3556 108.718 30.6776C109.111 30.9948 109.603 31.1534 110.195 31.1534ZM120.162 26.608V33H117.591V22.0909H120.048V23.9446H120.176C120.427 23.3338 120.827 22.8485 121.376 22.4886C121.93 22.1288 122.614 21.9489 123.429 21.9489C124.181 21.9489 124.837 22.1098 125.396 22.4318C125.959 22.7538 126.395 23.2202 126.703 23.831C127.015 24.4418 127.169 25.1828 127.164 26.054V33H124.593V26.4517C124.593 25.7225 124.404 25.152 124.025 24.7401C123.651 24.3281 123.133 24.1222 122.47 24.1222C122.02 24.1222 121.62 24.2216 121.27 24.4205C120.924 24.6146 120.652 24.8963 120.453 25.2656C120.259 25.6349 120.162 26.0824 120.162 26.608ZM138.4 24.9744L136.056 25.2301C135.99 24.9934 135.874 24.7708 135.708 24.5625C135.547 24.3542 135.33 24.1861 135.055 24.0582C134.78 23.9304 134.444 23.8665 134.047 23.8665C133.511 23.8665 133.062 23.9825 132.697 24.2145C132.337 24.4465 132.16 24.7472 132.164 25.1165C132.16 25.4337 132.276 25.6918 132.512 25.8906C132.754 26.0895 133.152 26.2528 133.706 26.3807L135.566 26.7784C136.599 27.0009 137.366 27.3537 137.868 27.8366C138.374 28.3196 138.63 28.9517 138.635 29.733C138.63 30.4195 138.429 31.0256 138.031 31.5511C137.638 32.072 137.091 32.4792 136.39 32.7727C135.69 33.0663 134.885 33.2131 133.975 33.2131C132.64 33.2131 131.565 32.9337 130.751 32.375C129.937 31.8116 129.451 31.0279 129.295 30.0241L131.802 29.7827C131.916 30.2751 132.157 30.6468 132.527 30.8977C132.896 31.1487 133.377 31.2741 133.968 31.2741C134.579 31.2741 135.069 31.1487 135.439 30.8977C135.813 30.6468 136 30.3366 136 29.9673C136 29.6548 135.879 29.3968 135.637 29.1932C135.401 28.9896 135.031 28.8333 134.529 28.7244L132.669 28.3338C131.622 28.116 130.848 27.7491 130.346 27.233C129.844 26.7121 129.596 26.054 129.6 25.2585C129.596 24.5862 129.778 24.0038 130.147 23.5114C130.521 23.0142 131.04 22.6307 131.703 22.3608C132.37 22.0862 133.14 21.9489 134.011 21.9489C135.289 21.9489 136.296 22.2211 137.029 22.7656C137.768 23.3101 138.225 24.0464 138.4 24.9744ZM146.202 22.0909V24.0795H139.931V22.0909H146.202ZM141.479 19.4773H144.05V29.7188C144.05 30.0644 144.102 30.3295 144.206 30.5142C144.315 30.6941 144.457 30.8172 144.632 30.8835C144.808 30.9498 145.002 30.983 145.215 30.983C145.376 30.983 145.523 30.9711 145.655 30.9474C145.792 30.9238 145.897 30.9025 145.968 30.8835L146.401 32.8935C146.264 32.9408 146.067 32.9929 145.811 33.0497C145.56 33.1065 145.253 33.1397 144.888 33.1491C144.244 33.1681 143.664 33.071 143.148 32.858C142.632 32.6402 142.222 32.304 141.919 31.8494C141.621 31.3949 141.474 30.8267 141.479 30.1449V19.4773ZM153.065 33.2131C151.971 33.2131 151.026 32.9858 150.231 32.5312C149.44 32.072 148.832 31.4233 148.406 30.5852C147.979 29.7424 147.766 28.7505 147.766 27.6094C147.766 26.4872 147.979 25.5024 148.406 24.6548C148.836 23.8026 149.438 23.1397 150.21 22.6662C150.981 22.188 151.888 21.9489 152.93 21.9489C153.602 21.9489 154.237 22.0578 154.833 22.2756C155.434 22.4886 155.965 22.8201 156.424 23.2699C156.888 23.7197 157.253 24.2926 157.518 24.9886C157.783 25.6799 157.915 26.5038 157.915 27.4602V28.2486H148.974V26.5156H155.451C155.446 26.0232 155.34 25.5852 155.131 25.2017C154.923 24.8134 154.632 24.508 154.258 24.2855C153.888 24.063 153.458 23.9517 152.965 23.9517C152.44 23.9517 151.978 24.0795 151.58 24.3352C151.183 24.5862 150.872 24.9176 150.65 25.3295C150.432 25.7367 150.321 26.1842 150.316 26.6719V28.1847C150.316 28.8191 150.432 29.3636 150.664 29.8182C150.896 30.268 151.22 30.6136 151.637 30.8551C152.054 31.0919 152.541 31.2102 153.1 31.2102C153.474 31.2102 153.813 31.1581 154.116 31.054C154.419 30.9451 154.682 30.7865 154.904 30.5781C155.127 30.3698 155.295 30.1117 155.408 29.804L157.809 30.0739C157.657 30.7083 157.369 31.2623 156.942 31.7358C156.521 32.2045 155.981 32.5691 155.323 32.8295C154.665 33.0852 153.912 33.2131 153.065 33.2131ZM160.091 33V22.0909H162.583V23.9091H162.697C162.896 23.2794 163.237 22.794 163.72 22.4531C164.208 22.1075 164.764 21.9347 165.389 21.9347C165.531 21.9347 165.69 21.9418 165.865 21.956C166.045 21.9654 166.194 21.982 166.312 22.0057V24.3707C166.203 24.3329 166.03 24.2997 165.794 24.2713C165.562 24.2382 165.337 24.2216 165.119 24.2216C164.65 24.2216 164.229 24.3234 163.855 24.527C163.485 24.7259 163.194 25.0028 162.981 25.358C162.768 25.7131 162.662 26.1226 162.662 26.5866V33H160.091Z" fill="#2CB1BC"/>
</svg>
