<svg width="177" height="44" viewBox="0 0 177 44" fill="none" xmlns="http://www.w3.org/2000/svg">
<rect width="43.2" height="43.1373" rx="8" fill="#F20060"/>
<path d="M23.1678 14.1604H25.7814V24.3877C25.7767 25.3252 25.5778 26.1325 25.1849 26.8096C24.7919 27.4819 24.2426 28.0004 23.5371 28.365C22.8364 28.7248 22.0196 28.9048 21.0868 28.9048C20.2346 28.9048 19.4675 28.7532 18.7857 28.4502C18.1086 28.1424 17.5712 27.6879 17.1735 27.0866C16.7758 26.4852 16.5769 25.7371 16.5769 24.8423H19.1976C19.2024 25.2352 19.2876 25.5738 19.4533 25.8579C19.6238 26.142 19.8581 26.3598 20.1564 26.5113C20.4547 26.6628 20.798 26.7386 21.1863 26.7386C21.6077 26.7386 21.9652 26.651 22.2587 26.4758C22.5523 26.2958 22.7748 26.0307 22.9263 25.6803C23.0826 25.3299 23.1631 24.8991 23.1678 24.3877V14.1604Z" fill="white"/>
<path d="M89.4347 17.4545H92.6591L96.9773 27.9943H97.1477L101.466 17.4545H104.69V32H102.162V22.0071H102.027L98.0071 31.9574H96.1179L92.098 21.9858H91.9631V32H89.4347V17.4545ZM112.205 32.2131C111.139 32.2131 110.216 31.9787 109.435 31.5099C108.653 31.0412 108.047 30.3854 107.616 29.5426C107.19 28.6998 106.977 27.715 106.977 26.5881C106.977 25.4612 107.19 24.474 107.616 23.6264C108.047 22.7789 108.653 22.1207 109.435 21.652C110.216 21.1832 111.139 20.9489 112.205 20.9489C113.27 20.9489 114.193 21.1832 114.974 21.652C115.756 22.1207 116.359 22.7789 116.786 23.6264C117.216 24.474 117.432 25.4612 117.432 26.5881C117.432 27.715 117.216 28.6998 116.786 29.5426C116.359 30.3854 115.756 31.0412 114.974 31.5099C114.193 31.9787 113.27 32.2131 112.205 32.2131ZM112.219 30.1534C112.796 30.1534 113.279 29.9948 113.668 29.6776C114.056 29.3556 114.345 28.9247 114.534 28.3849C114.728 27.8452 114.825 27.2438 114.825 26.581C114.825 25.9134 114.728 25.3097 114.534 24.7699C114.345 24.2254 114.056 23.7921 113.668 23.4702C113.279 23.1482 112.796 22.9872 112.219 22.9872C111.627 22.9872 111.134 23.1482 110.741 23.4702C110.353 23.7921 110.062 24.2254 109.868 24.7699C109.679 25.3097 109.584 25.9134 109.584 26.581C109.584 27.2438 109.679 27.8452 109.868 28.3849C110.062 28.9247 110.353 29.3556 110.741 29.6776C111.134 29.9948 111.627 30.1534 112.219 30.1534ZM122.185 25.608V32H119.614V21.0909H122.071V22.9446H122.199C122.45 22.3338 122.85 21.8485 123.4 21.4886C123.953 21.1288 124.638 20.9489 125.452 20.9489C126.205 20.9489 126.861 21.1098 127.419 21.4318C127.983 21.7538 128.418 22.2202 128.726 22.831C129.039 23.4418 129.193 24.1828 129.188 25.054V32H126.617V25.4517C126.617 24.7225 126.427 24.152 126.049 23.7401C125.675 23.3281 125.156 23.1222 124.493 23.1222C124.043 23.1222 123.643 23.2216 123.293 23.4205C122.947 23.6146 122.675 23.8963 122.476 24.2656C122.282 24.6349 122.185 25.0824 122.185 25.608ZM140.424 23.9744L138.08 24.2301C138.014 23.9934 137.898 23.7708 137.732 23.5625C137.571 23.3542 137.353 23.1861 137.078 23.0582C136.804 22.9304 136.468 22.8665 136.07 22.8665C135.535 22.8665 135.085 22.9825 134.721 23.2145C134.361 23.4465 134.183 23.7472 134.188 24.1165C134.183 24.4337 134.299 24.6918 134.536 24.8906C134.777 25.0895 135.175 25.2528 135.729 25.3807L137.59 25.7784C138.622 26.0009 139.389 26.3537 139.891 26.8366C140.398 27.3196 140.653 27.9517 140.658 28.733C140.653 29.4195 140.452 30.0256 140.054 30.5511C139.661 31.072 139.114 31.4792 138.414 31.7727C137.713 32.0663 136.908 32.2131 135.999 32.2131C134.664 32.2131 133.589 31.9337 132.775 31.375C131.96 30.8116 131.475 30.0279 131.319 29.0241L133.826 28.7827C133.939 29.2751 134.181 29.6468 134.55 29.8977C134.919 30.1487 135.4 30.2741 135.992 30.2741C136.603 30.2741 137.093 30.1487 137.462 29.8977C137.836 29.6468 138.023 29.3366 138.023 28.9673C138.023 28.6548 137.902 28.3968 137.661 28.1932C137.424 27.9896 137.055 27.8333 136.553 27.7244L134.692 27.3338C133.646 27.116 132.872 26.7491 132.37 26.233C131.868 25.7121 131.619 25.054 131.624 24.2585C131.619 23.5862 131.801 23.0038 132.171 22.5114C132.545 22.0142 133.063 21.6307 133.726 21.3608C134.394 21.0862 135.163 20.9489 136.034 20.9489C137.313 20.9489 138.319 21.2211 139.053 21.7656C139.792 22.3101 140.248 23.0464 140.424 23.9744ZM148.225 21.0909V23.0795H141.954V21.0909H148.225ZM143.502 18.4773H146.074V28.7188C146.074 29.0644 146.126 29.3295 146.23 29.5142C146.339 29.6941 146.481 29.8172 146.656 29.8835C146.831 29.9498 147.025 29.983 147.238 29.983C147.399 29.983 147.546 29.9711 147.679 29.9474C147.816 29.9238 147.92 29.9025 147.991 29.8835L148.424 31.8935C148.287 31.9408 148.091 31.9929 147.835 32.0497C147.584 32.1065 147.276 32.1397 146.912 32.1491C146.268 32.1681 145.688 32.071 145.172 31.858C144.655 31.6402 144.246 31.304 143.943 30.8494C143.645 30.3949 143.498 29.8267 143.502 29.1449V18.4773ZM155.088 32.2131C153.994 32.2131 153.05 31.9858 152.254 31.5312C151.464 31.072 150.855 30.4233 150.429 29.5852C150.003 28.7424 149.79 27.7505 149.79 26.6094C149.79 25.4872 150.003 24.5024 150.429 23.6548C150.86 22.8026 151.461 22.1397 152.233 21.6662C153.005 21.188 153.911 20.9489 154.953 20.9489C155.625 20.9489 156.26 21.0578 156.857 21.2756C157.458 21.4886 157.988 21.8201 158.447 22.2699C158.911 22.7197 159.276 23.2926 159.541 23.9886C159.806 24.6799 159.939 25.5038 159.939 26.4602V27.2486H150.997V25.5156H157.474C157.47 25.0232 157.363 24.5852 157.155 24.2017C156.946 23.8134 156.655 23.508 156.281 23.2855C155.912 23.063 155.481 22.9517 154.989 22.9517C154.463 22.9517 154.001 23.0795 153.604 23.3352C153.206 23.5862 152.896 23.9176 152.673 24.3295C152.455 24.7367 152.344 25.1842 152.339 25.6719V27.1847C152.339 27.8191 152.455 28.3636 152.688 28.8182C152.92 29.268 153.244 29.6136 153.661 29.8551C154.077 30.0919 154.565 30.2102 155.124 30.2102C155.498 30.2102 155.836 30.1581 156.139 30.054C156.442 29.9451 156.705 29.7865 156.928 29.5781C157.15 29.3698 157.318 29.1117 157.432 28.804L159.832 29.0739C159.681 29.7083 159.392 30.2623 158.966 30.7358C158.545 31.2045 158.005 31.5691 157.347 31.8295C156.688 32.0852 155.936 32.2131 155.088 32.2131ZM162.114 32V21.0909H164.607V22.9091H164.721C164.919 22.2794 165.26 21.794 165.743 21.4531C166.231 21.1075 166.787 20.9347 167.412 20.9347C167.554 20.9347 167.713 20.9418 167.888 20.956C168.068 20.9654 168.217 20.982 168.336 21.0057V23.3707C168.227 23.3329 168.054 23.2997 167.817 23.2713C167.585 23.2382 167.36 23.2216 167.142 23.2216C166.674 23.2216 166.252 23.3234 165.878 23.527C165.509 23.7259 165.218 24.0028 165.005 24.358C164.792 24.7131 164.685 25.1226 164.685 25.5866V32H162.114Z" fill="#F20060"/>
<path d="M54.42 32.9C53.1933 32.9 52.0467 32.5467 50.98 31.84L51.92 29.36C52.4533 29.5467 52.9067 29.64 53.28 29.64C54.1733 29.64 54.62 29.0867 54.62 27.98V18.24H58.92V27.98C58.92 29.5133 58.52 30.72 57.72 31.6C56.92 32.4667 55.82 32.9 54.42 32.9ZM66.4788 32.16C65.3588 32.16 64.3588 31.94 63.4788 31.5C62.6121 31.06 61.9321 30.4533 61.4388 29.68C60.9588 28.8933 60.7188 27.9933 60.7188 26.98C60.7188 25.9667 60.9654 25.0733 61.4588 24.3C61.9521 23.5133 62.6321 22.9067 63.4988 22.48C64.3788 22.0533 65.3788 21.84 66.4988 21.84C67.6321 21.84 68.6321 22.06 69.4988 22.5C70.3788 22.9267 71.0588 23.5267 71.5388 24.3C72.0188 25.0733 72.2588 25.9667 72.2588 26.98C72.2588 28.0067 72.0121 28.9133 71.5187 29.7C71.0388 30.4733 70.3588 31.08 69.4788 31.52C68.6121 31.9467 67.6121 32.16 66.4788 32.16ZM66.5188 29.16C67.0654 29.16 67.5121 28.96 67.8588 28.56C68.2188 28.1467 68.3988 27.62 68.3988 26.98C68.3988 26.34 68.2188 25.82 67.8588 25.42C67.5121 25.0067 67.0654 24.8 66.5188 24.8C65.9721 24.8 65.5188 25.0067 65.1588 25.42C64.8121 25.82 64.6388 26.34 64.6388 26.98C64.6388 27.62 64.8121 28.1467 65.1588 28.56C65.5188 28.96 65.9721 29.16 66.5188 29.16ZM81.2978 32.16C79.7645 32.16 78.6778 31.4867 78.0378 30.14V32H73.7978V18.82L78.0378 18.2V23.86C78.3711 23.1533 78.8045 22.64 79.3378 22.32C79.8711 22 80.5178 21.84 81.2778 21.84C82.1711 21.84 82.9911 22.0667 83.7378 22.52C84.4978 22.96 85.0911 23.5733 85.5178 24.36C85.9578 25.1467 86.1778 26.0267 86.1778 27C86.1778 27.96 85.9511 28.8333 85.4978 29.62C85.0578 30.4067 84.4578 31.0267 83.6978 31.48C82.9511 31.9333 82.1511 32.16 81.2978 32.16ZM80.0178 29C80.5645 29 81.0311 28.8 81.4178 28.4C81.8045 28 81.9978 27.5333 81.9978 27C81.9978 26.44 81.7978 25.9667 81.3978 25.58C81.0111 25.1933 80.5511 25 80.0178 25C79.4711 25 79.0045 25.1933 78.6178 25.58C78.2311 25.9533 78.0378 26.4 78.0378 26.92V27C78.0378 27.56 78.2311 28.0333 78.6178 28.42C79.0178 28.8067 79.4845 29 80.0178 29Z" fill="#F20060"/>
</svg>
