<svg width="44" height="44" viewBox="0 0 44 44" fill="none" xmlns="http://www.w3.org/2000/svg">
<rect width="43.2" height="43.1373" rx="8" fill="#F20060"/>
<path d="M23.1678 14.1604H25.7814V24.3877C25.7767 25.3252 25.5778 26.1325 25.1849 26.8096C24.7919 27.4819 24.2426 28.0004 23.5371 28.365C22.8364 28.7248 22.0196 28.9048 21.0868 28.9048C20.2346 28.9048 19.4675 28.7532 18.7857 28.4502C18.1086 28.1424 17.5712 27.6879 17.1735 27.0866C16.7758 26.4852 16.5769 25.7371 16.5769 24.8423H19.1976C19.2024 25.2352 19.2876 25.5738 19.4533 25.8579C19.6238 26.142 19.8581 26.3598 20.1564 26.5113C20.4547 26.6628 20.798 26.7386 21.1863 26.7386C21.6077 26.7386 21.9652 26.651 22.2587 26.4758C22.5523 26.2958 22.7748 26.0307 22.9263 25.6803C23.0826 25.3299 23.1631 24.8991 23.1678 24.3877V14.1604Z" fill="white"/>
</svg>
